<svg xmlns="http://www.w3.org/2000/svg" width="104" height="20" viewBox="0 0 104 20">
    <g fill="none" fill-rule="nonzero">
        <path fill="#6C9ED5" d="M19.221 6.56c-.112.187-.246.36-.397.518a3.012 3.012 0 0 1-1.055.706c-.42.16-.867.24-1.317.235a3.176 3.176 0 0 1-2.078-.69c-.555-.456-1.005-1.195-1.339-2.197l-.27-.706v-.012a9.74 9.74 0 0 0-.445-.828 2.882 2.882 0 0 0-.576-.69 2.64 2.64 0 0 0-.78-.47 2.824 2.824 0 0 0-1.006-.17c-.857 0-1.52.28-1.977.836-.475.6-.72 1.352-.69 2.117-.006.386.042.772.144 1.144.105.353.27.686.487.983.258.351.55.674.873.965.417.375.854.728 1.309 1.057.56.393 1.09.828 1.585 1.3.38.364.711.775.984 1.224.23.39.4.812.503 1.252.102.45.152.91.149 1.372a4.781 4.781 0 0 1-.252 1.614c-.15.433-.39.828-.706 1.16a3.005 3.005 0 0 1-1.056.706c-.42.161-.868.241-1.318.235a3.174 3.174 0 0 1-2.078-.69c-.555-.456-1.004-1.195-1.339-2.197l-.27-.706v-.012c-.139-.289-.287-.569-.442-.828a2.89 2.89 0 0 0-.577-.69 2.619 2.619 0 0 0-.781-.47 2.824 2.824 0 0 0-1.005-.157c-.854 0-1.52.282-1.976.835-.183.222-.332.47-.44.736A9.814 9.814 0 0 0 19.22 6.56z"/>
        <path fill="#6C9ED5" d="M3.501 12.016c.4-.005.8.06 1.177.196.328.122.634.297.906.517.264.22.493.478.677.767.192.299.356.614.492.942l.282.748a4.527 4.527 0 0 0 1.163 1.939 2.588 2.588 0 0 0 1.802.64 2.67 2.67 0 0 0 2.033-.824c.525-.548.79-1.367.79-2.435a5.228 5.228 0 0 0-.148-1.27 3.918 3.918 0 0 0-.499-1.144 6.365 6.365 0 0 0-.94-1.123A13.525 13.525 0 0 0 9.79 9.765a14.75 14.75 0 0 1-1.45-1.153 5.758 5.758 0 0 1-.925-1.064 3.736 3.736 0 0 1-.494-1.09 4.786 4.786 0 0 1-.148-1.223A3.65 3.65 0 0 1 7.6 2.772c.55-.63 1.336-.941 2.353-.941.4-.007.799.058 1.176.193a3.294 3.294 0 0 1 1.588 1.27c.192.298.357.613.492.941l.283.749a4.534 4.534 0 0 0 1.162 1.938c.497.432 1.14.659 1.798.633a2.67 2.67 0 0 0 2.035-.826c.209-.22.375-.477.492-.757A9.814 9.814 0 0 0 .833 13.43c.094-.167.204-.324.327-.471.55-.621 1.336-.944 2.341-.944z"/>
        <path fill="#000" d="M66.421 17.854L63.254 1.101h-.459l-3.14 16.753-2.61-16.753h-.483L59.4 18.918h.482l3.142-16.725 3.143 16.725h.482L69.487 1.1h-.482zM49.238.873c-1.436 0-2.572.726-3.41 2.179-.837 1.452-1.255 3.758-1.254 6.917a21.958 21.958 0 0 0 .33 4.095c.168.983.485 1.935.94 2.823a4.285 4.285 0 0 0 1.471 1.647 3.75 3.75 0 0 0 3.852 0 4.292 4.292 0 0 0 1.468-1.647c.456-.888.774-1.84.941-2.823.238-1.352.349-2.723.33-4.095 0-3.159-.418-5.465-1.254-6.917-.836-1.453-1.974-2.18-3.414-2.18zm3.058 15.65c-.735 1.392-1.755 2.089-3.058 2.089-1.304 0-2.323-.697-3.06-2.09-.733-1.394-1.101-3.578-1.103-6.553-.001-2.974.367-5.153 1.104-6.538.734-1.403 1.754-2.104 3.059-2.104 1.305 0 2.324.701 3.058 2.104.735 1.402 1.102 3.582 1.102 6.538 0 2.957-.369 5.142-1.106 6.556l.004-.003zM80.184 9.212h-7.097v-8.11h-.508v17.74h.508V9.694h7.097v9.148h.505V1.102h-.505zM36.922 1.101h-.508v17.741h6.134v-.482h-5.626zM103.55 3.51a3.419 3.419 0 0 0-.94-1.411 3.595 3.595 0 0 0-1.457-.76 6.588 6.588 0 0 0-.988-.181 8.838 8.838 0 0 0-.925-.047h-2.786v17.74h.508v-8.296h2.118c.36.002.72-.023 1.078-.075.291-.042.579-.106.86-.19a3.847 3.847 0 0 0 1.51-.85 3.92 3.92 0 0 0 .987-1.496c.255-.715.375-1.47.356-2.229a6.381 6.381 0 0 0-.32-2.204zm-.494 4.236c-.183.516-.487.98-.887 1.355-.387.351-.851.607-1.355.748a5.435 5.435 0 0 1-.647.144 6.68 6.68 0 0 1-1.078.082h-2.117V1.584h2.28c.305.003.61.024.913.063.26.032.52.082.774.148.483.123.93.357 1.306.685.381.35.668.79.835 1.28.21.633.31 1.298.292 1.965a5.734 5.734 0 0 1-.313 2.016l-.003.005zM88.572.873c-1.436 0-2.571.726-3.407 2.179-.836 1.452-1.254 3.758-1.254 6.917a22.096 22.096 0 0 0 .329 4.095c.17.983.487 1.935.941 2.823a4.282 4.282 0 0 0 1.47 1.647 3.765 3.765 0 0 0 3.853 0 4.282 4.282 0 0 0 1.468-1.647c.456-.888.773-1.84.94-2.823.239-1.352.35-2.723.33-4.095 0-3.159-.418-5.465-1.254-6.917-.836-1.453-1.975-2.18-3.416-2.18zm3.059 15.65c-.736 1.392-1.756 2.089-3.06 2.089-1.303 0-2.322-.697-3.058-2.09-.736-1.394-1.103-3.578-1.101-6.553.001-2.974.368-5.153 1.1-6.538.735-1.403 1.755-2.104 3.06-2.104 1.305 0 2.324.701 3.059 2.104.734 1.402 1.1 3.582 1.1 6.538 0 2.957-.368 5.142-1.105 6.556l.005-.003zM32.499 12.064a6.624 6.624 0 0 0-1.09-1.356 14.908 14.908 0 0 0-1.762-1.447 17.492 17.492 0 0 1-1.456-1.176 7.01 7.01 0 0 1-.977-1.078 3.63 3.63 0 0 1-.546-1.101 4.513 4.513 0 0 1-.164-1.254c-.034-.86.24-1.705.774-2.381.514-.628 1.253-.942 2.216-.942.384-.005.766.06 1.127.191.32.121.616.297.875.52.257.225.477.49.65.784.176.294.341.604.494.924l.456-.176a6.48 6.48 0 0 0-.545-1.052 3.621 3.621 0 0 0-.749-.847A3.53 3.53 0 0 0 30.8 1.1a3.685 3.685 0 0 0-1.306-.214c-1.115 0-1.978.35-2.588 1.052-.61.701-.912 1.605-.906 2.71-.004.457.051.913.165 1.356.116.428.3.835.546 1.204.292.433.636.828 1.025 1.177.51.46 1.047.887 1.61 1.28.567.41 1.105.859 1.61 1.343.395.378.745.8 1.044 1.257.253.394.441.826.558 1.28.112.462.167.936.164 1.412 0 1.2-.295 2.108-.887 2.724a3.019 3.019 0 0 1-2.28.925 2.913 2.913 0 0 1-2.014-.706c-.532-.47-.967-1.197-1.306-2.179l-.456.15c.372 1.116.866 1.927 1.482 2.434a3.49 3.49 0 0 0 2.287.753 3.92 3.92 0 0 0 1.457-.266c.443-.17.844-.433 1.176-.772.34-.365.6-.798.76-1.27a5.256 5.256 0 0 0 .278-1.786 6.699 6.699 0 0 0-.165-1.52 4.922 4.922 0 0 0-.555-1.381z"/>
    </g>
</svg>
